<mxfile host="Electron" modified="2023-10-25T03:05:53.595Z" agent="Mozilla/5.0 (Windows NT 10.0; Win64; x64) AppleWebKit/537.36 (KHTML, like Gecko) draw.io/22.0.2 Chrome/114.0.5735.289 Electron/25.8.4 Safari/537.36" etag="wBCCiixsAbL_4EEYIUPo" version="22.0.2" type="device">
  <diagram name="Page-1" id="0783ab3e-0a74-02c8-0abd-f7b4e66b4bec">
    <mxGraphModel dx="1050" dy="629" grid="1" gridSize="10" guides="1" tooltips="1" connect="1" arrows="1" fold="1" page="1" pageScale="1" pageWidth="850" pageHeight="1100" background="none" math="0" shadow="0">
      <root>
        <mxCell id="0" />
        <mxCell id="1" parent="0" />
        <mxCell id="1c1d494c118603dd-1" value="Оновлення статусу задачі" style="swimlane;html=1;childLayout=stackLayout;startSize=20;rounded=0;shadow=0;comic=0;labelBackgroundColor=none;strokeWidth=1;fontFamily=Verdana;fontSize=12;align=center;" parent="1" vertex="1">
          <mxGeometry x="40" y="20" width="800" height="680" as="geometry" />
        </mxCell>
        <mxCell id="1c1d494c118603dd-3" value="Система" style="swimlane;html=1;startSize=20;" parent="1c1d494c118603dd-1" vertex="1">
          <mxGeometry y="20" width="400" height="660" as="geometry" />
        </mxCell>
        <mxCell id="k5LIaaSoKTRThT7m856e-12" value="Показати&amp;nbsp;окреме&lt;br&gt;вікно з запитом на підтвердження статусу" style="rounded=1;whiteSpace=wrap;html=1;shadow=0;comic=0;labelBackgroundColor=none;strokeWidth=1;fontFamily=Verdana;fontSize=12;align=center;arcSize=50;" vertex="1" parent="1c1d494c118603dd-3">
          <mxGeometry x="210" y="160" width="145" height="70" as="geometry" />
        </mxCell>
        <mxCell id="k5LIaaSoKTRThT7m856e-31" style="edgeStyle=orthogonalEdgeStyle;rounded=0;orthogonalLoop=1;jettySize=auto;html=1;entryX=0.5;entryY=0;entryDx=0;entryDy=0;" edge="1" parent="1c1d494c118603dd-3" source="k5LIaaSoKTRThT7m856e-15" target="k5LIaaSoKTRThT7m856e-30">
          <mxGeometry relative="1" as="geometry" />
        </mxCell>
        <mxCell id="k5LIaaSoKTRThT7m856e-15" value="Заблокувати можливість змінювати задачу" style="rounded=1;whiteSpace=wrap;html=1;shadow=0;comic=0;labelBackgroundColor=none;strokeWidth=1;fontFamily=Verdana;fontSize=12;align=center;arcSize=50;" vertex="1" parent="1c1d494c118603dd-3">
          <mxGeometry x="210" y="400" width="145" height="70" as="geometry" />
        </mxCell>
        <mxCell id="k5LIaaSoKTRThT7m856e-33" style="edgeStyle=orthogonalEdgeStyle;rounded=0;orthogonalLoop=1;jettySize=auto;html=1;entryX=0.5;entryY=0;entryDx=0;entryDy=0;" edge="1" parent="1c1d494c118603dd-3" source="k5LIaaSoKTRThT7m856e-30" target="60571a20871a0731-5">
          <mxGeometry relative="1" as="geometry" />
        </mxCell>
        <mxCell id="k5LIaaSoKTRThT7m856e-30" value="Оновити інформацію в БД про статус" style="rounded=1;whiteSpace=wrap;html=1;shadow=0;comic=0;labelBackgroundColor=none;strokeWidth=1;fontFamily=Verdana;fontSize=12;align=center;arcSize=50;" vertex="1" parent="1c1d494c118603dd-3">
          <mxGeometry x="210" y="500" width="145" height="70" as="geometry" />
        </mxCell>
        <mxCell id="60571a20871a0731-5" value="" style="shape=mxgraph.bpmn.shape;html=1;verticalLabelPosition=bottom;labelBackgroundColor=#ffffff;verticalAlign=top;perimeter=ellipsePerimeter;outline=end;symbol=terminate;rounded=0;shadow=0;comic=0;strokeWidth=1;fontFamily=Verdana;fontSize=12;align=center;" parent="1c1d494c118603dd-3" vertex="1">
          <mxGeometry x="262.5" y="600" width="40" height="40" as="geometry" />
        </mxCell>
        <mxCell id="1c1d494c118603dd-4" value="Водій" style="swimlane;html=1;startSize=20;" parent="1c1d494c118603dd-1" vertex="1">
          <mxGeometry x="400" y="20" width="400" height="660" as="geometry" />
        </mxCell>
        <mxCell id="1c1d494c118603dd-27" style="edgeStyle=orthogonalEdgeStyle;rounded=0;html=1;labelBackgroundColor=none;startArrow=none;startFill=0;startSize=5;endArrow=classicThin;endFill=1;endSize=5;jettySize=auto;orthogonalLoop=1;strokeWidth=1;fontFamily=Verdana;fontSize=12" parent="1c1d494c118603dd-4" source="60571a20871a0731-4" target="60571a20871a0731-8" edge="1">
          <mxGeometry relative="1" as="geometry" />
        </mxCell>
        <mxCell id="60571a20871a0731-4" value="" style="ellipse;whiteSpace=wrap;html=1;rounded=0;shadow=0;comic=0;labelBackgroundColor=none;strokeWidth=1;fillColor=#000000;fontFamily=Verdana;fontSize=12;align=center;" parent="1c1d494c118603dd-4" vertex="1">
          <mxGeometry x="180" y="40" width="40" height="40" as="geometry" />
        </mxCell>
        <mxCell id="k5LIaaSoKTRThT7m856e-6" style="edgeStyle=orthogonalEdgeStyle;rounded=0;orthogonalLoop=1;jettySize=auto;html=1;entryX=0.5;entryY=0;entryDx=0;entryDy=0;" edge="1" parent="1c1d494c118603dd-4" source="60571a20871a0731-8" target="k5LIaaSoKTRThT7m856e-1">
          <mxGeometry relative="1" as="geometry" />
        </mxCell>
        <mxCell id="60571a20871a0731-8" value="Перейти в меню обраної задачі" style="rounded=1;whiteSpace=wrap;html=1;shadow=0;comic=0;labelBackgroundColor=none;strokeWidth=1;fontFamily=Verdana;fontSize=12;align=center;arcSize=50;" parent="1c1d494c118603dd-4" vertex="1">
          <mxGeometry x="135" y="100" width="130" height="50" as="geometry" />
        </mxCell>
        <mxCell id="k5LIaaSoKTRThT7m856e-1" value="Обрати новий статус" style="rounded=1;whiteSpace=wrap;html=1;shadow=0;comic=0;labelBackgroundColor=none;strokeWidth=1;fontFamily=Verdana;fontSize=12;align=center;arcSize=50;" vertex="1" parent="1c1d494c118603dd-4">
          <mxGeometry x="127.5" y="180" width="145" height="30" as="geometry" />
        </mxCell>
        <mxCell id="k5LIaaSoKTRThT7m856e-24" style="edgeStyle=orthogonalEdgeStyle;rounded=0;orthogonalLoop=1;jettySize=auto;html=1;exitX=1;exitY=0.5;exitDx=0;exitDy=0;entryX=1;entryY=0.5;entryDx=0;entryDy=0;" edge="1" parent="1c1d494c118603dd-4" source="k5LIaaSoKTRThT7m856e-7" target="k5LIaaSoKTRThT7m856e-1">
          <mxGeometry relative="1" as="geometry">
            <Array as="points">
              <mxPoint x="320" y="320" />
              <mxPoint x="320" y="195" />
            </Array>
          </mxGeometry>
        </mxCell>
        <mxCell id="k5LIaaSoKTRThT7m856e-28" style="edgeStyle=orthogonalEdgeStyle;rounded=0;orthogonalLoop=1;jettySize=auto;html=1;entryX=0.5;entryY=0;entryDx=0;entryDy=0;exitX=0;exitY=0.5;exitDx=0;exitDy=0;" edge="1" parent="1c1d494c118603dd-4" source="k5LIaaSoKTRThT7m856e-7" target="k5LIaaSoKTRThT7m856e-25">
          <mxGeometry relative="1" as="geometry" />
        </mxCell>
        <mxCell id="k5LIaaSoKTRThT7m856e-7" value="" style="rhombus;" vertex="1" parent="1c1d494c118603dd-4">
          <mxGeometry x="185" y="300" width="30" height="40" as="geometry" />
        </mxCell>
        <mxCell id="k5LIaaSoKTRThT7m856e-10" value="[Статус &quot;Завершено &lt;br&gt;або Відмінено&quot;]" style="text;html=1;align=center;verticalAlign=middle;resizable=0;points=[];autosize=1;strokeColor=none;fillColor=none;" vertex="1" parent="1c1d494c118603dd-4">
          <mxGeometry x="60" y="360" width="140" height="40" as="geometry" />
        </mxCell>
        <mxCell id="k5LIaaSoKTRThT7m856e-11" value="[Інакше]" style="text;html=1;align=center;verticalAlign=middle;resizable=0;points=[];autosize=1;strokeColor=none;fillColor=none;" vertex="1" parent="1c1d494c118603dd-4">
          <mxGeometry x="215" y="360" width="70" height="30" as="geometry" />
        </mxCell>
        <mxCell id="k5LIaaSoKTRThT7m856e-19" style="edgeStyle=orthogonalEdgeStyle;rounded=0;orthogonalLoop=1;jettySize=auto;html=1;entryX=0.5;entryY=0;entryDx=0;entryDy=0;" edge="1" parent="1c1d494c118603dd-4" source="k5LIaaSoKTRThT7m856e-17" target="k5LIaaSoKTRThT7m856e-7">
          <mxGeometry relative="1" as="geometry" />
        </mxCell>
        <mxCell id="k5LIaaSoKTRThT7m856e-17" value="Підтвердити зміни" style="rounded=1;whiteSpace=wrap;html=1;shadow=0;comic=0;labelBackgroundColor=none;strokeWidth=1;fontFamily=Verdana;fontSize=12;align=center;arcSize=50;" vertex="1" parent="1c1d494c118603dd-4">
          <mxGeometry x="127.5" y="230" width="145" height="40" as="geometry" />
        </mxCell>
        <mxCell id="k5LIaaSoKTRThT7m856e-22" value="[Так]" style="text;html=1;align=center;verticalAlign=middle;resizable=0;points=[];autosize=1;strokeColor=none;fillColor=none;" vertex="1" parent="1c1d494c118603dd-4">
          <mxGeometry x="140" y="280" width="50" height="30" as="geometry" />
        </mxCell>
        <mxCell id="k5LIaaSoKTRThT7m856e-23" value="[Ні]" style="text;html=1;align=center;verticalAlign=middle;resizable=0;points=[];autosize=1;strokeColor=none;fillColor=none;" vertex="1" parent="1c1d494c118603dd-4">
          <mxGeometry x="220" y="280" width="40" height="30" as="geometry" />
        </mxCell>
        <mxCell id="k5LIaaSoKTRThT7m856e-25" value="" style="rhombus;" vertex="1" parent="1c1d494c118603dd-4">
          <mxGeometry x="185" y="380" width="30" height="40" as="geometry" />
        </mxCell>
        <mxCell id="k5LIaaSoKTRThT7m856e-16" style="edgeStyle=orthogonalEdgeStyle;rounded=0;orthogonalLoop=1;jettySize=auto;html=1;entryX=1;entryY=0.5;entryDx=0;entryDy=0;" edge="1" parent="1c1d494c118603dd-1" source="k5LIaaSoKTRThT7m856e-1" target="k5LIaaSoKTRThT7m856e-12">
          <mxGeometry relative="1" as="geometry" />
        </mxCell>
        <mxCell id="k5LIaaSoKTRThT7m856e-21" style="edgeStyle=orthogonalEdgeStyle;rounded=0;orthogonalLoop=1;jettySize=auto;html=1;entryX=0;entryY=0.75;entryDx=0;entryDy=0;exitX=0.5;exitY=1;exitDx=0;exitDy=0;" edge="1" parent="1c1d494c118603dd-1" source="k5LIaaSoKTRThT7m856e-12" target="k5LIaaSoKTRThT7m856e-17">
          <mxGeometry relative="1" as="geometry" />
        </mxCell>
        <mxCell id="k5LIaaSoKTRThT7m856e-29" style="edgeStyle=orthogonalEdgeStyle;rounded=0;orthogonalLoop=1;jettySize=auto;html=1;" edge="1" parent="1c1d494c118603dd-1" source="k5LIaaSoKTRThT7m856e-25" target="k5LIaaSoKTRThT7m856e-15">
          <mxGeometry relative="1" as="geometry" />
        </mxCell>
        <mxCell id="k5LIaaSoKTRThT7m856e-32" style="edgeStyle=orthogonalEdgeStyle;rounded=0;orthogonalLoop=1;jettySize=auto;html=1;exitX=1;exitY=0.5;exitDx=0;exitDy=0;entryX=1;entryY=0.5;entryDx=0;entryDy=0;" edge="1" parent="1c1d494c118603dd-1" source="k5LIaaSoKTRThT7m856e-25" target="k5LIaaSoKTRThT7m856e-30">
          <mxGeometry relative="1" as="geometry" />
        </mxCell>
      </root>
    </mxGraphModel>
  </diagram>
</mxfile>
